<mxfile host="Electron" modified="2023-05-16T12:31:41.162Z" agent="Mozilla/5.0 (Windows NT 10.0; Win64; x64) AppleWebKit/537.36 (KHTML, like Gecko) draw.io/21.2.8 Chrome/112.0.5615.165 Electron/24.2.0 Safari/537.36" etag="CF8zMkAeuKZa1vlPq_3i" version="21.2.8" type="device">
  <diagram name="第 1 页" id="9FVPP65_Ic_E3fbSRQcS">
    <mxGraphModel dx="1933" dy="737" grid="1" gridSize="10" guides="1" tooltips="1" connect="1" arrows="1" fold="1" page="1" pageScale="1" pageWidth="827" pageHeight="1169" math="0" shadow="0">
      <root>
        <mxCell id="0" />
        <mxCell id="1" parent="0" />
        <mxCell id="sCEOxCC_D3JUtgfjoK1O-22" style="edgeStyle=orthogonalEdgeStyle;rounded=0;orthogonalLoop=1;jettySize=auto;html=1;exitX=0.5;exitY=0;exitDx=0;exitDy=0;entryX=0.5;entryY=1;entryDx=0;entryDy=0;" parent="1" source="sCEOxCC_D3JUtgfjoK1O-1" target="sCEOxCC_D3JUtgfjoK1O-2" edge="1">
          <mxGeometry relative="1" as="geometry" />
        </mxCell>
        <mxCell id="sCEOxCC_D3JUtgfjoK1O-1" value="LazyMap&lt;br&gt;被代理对象/目标对象" style="rounded=0;whiteSpace=wrap;html=1;" parent="1" vertex="1">
          <mxGeometry x="320" y="380" width="160" height="60" as="geometry" />
        </mxCell>
        <mxCell id="sCEOxCC_D3JUtgfjoK1O-21" style="edgeStyle=orthogonalEdgeStyle;rounded=0;orthogonalLoop=1;jettySize=auto;html=1;exitX=0;exitY=0.5;exitDx=0;exitDy=0;entryX=0.5;entryY=0;entryDx=0;entryDy=0;" parent="1" source="sCEOxCC_D3JUtgfjoK1O-2" target="sCEOxCC_D3JUtgfjoK1O-4" edge="1">
          <mxGeometry relative="1" as="geometry">
            <Array as="points">
              <mxPoint y="150" />
            </Array>
          </mxGeometry>
        </mxCell>
        <mxCell id="sCEOxCC_D3JUtgfjoK1O-29" style="edgeStyle=orthogonalEdgeStyle;rounded=0;orthogonalLoop=1;jettySize=auto;html=1;exitX=0.75;exitY=1;exitDx=0;exitDy=0;entryX=0.75;entryY=0;entryDx=0;entryDy=0;" parent="1" source="sCEOxCC_D3JUtgfjoK1O-2" target="sCEOxCC_D3JUtgfjoK1O-1" edge="1">
          <mxGeometry relative="1" as="geometry" />
        </mxCell>
        <mxCell id="sCEOxCC_D3JUtgfjoK1O-2" value="AnnotationInvocationHandler&lt;br&gt;.invoke()" style="rounded=0;whiteSpace=wrap;html=1;" parent="1" vertex="1">
          <mxGeometry x="320" y="120" width="160" height="60" as="geometry" />
        </mxCell>
        <mxCell id="8pJzNf8jKelZhm4NtjMY-1" style="edgeStyle=orthogonalEdgeStyle;rounded=0;orthogonalLoop=1;jettySize=auto;html=1;entryX=0;entryY=0.5;entryDx=0;entryDy=0;" parent="1" source="sCEOxCC_D3JUtgfjoK1O-3" target="sCEOxCC_D3JUtgfjoK1O-4" edge="1">
          <mxGeometry relative="1" as="geometry" />
        </mxCell>
        <mxCell id="sCEOxCC_D3JUtgfjoK1O-3" value="AnnotationInvocationHandler&lt;br&gt;.readObject" style="rounded=0;whiteSpace=wrap;html=1;" parent="1" vertex="1">
          <mxGeometry x="-460" y="380" width="160" height="60" as="geometry" />
        </mxCell>
        <mxCell id="sCEOxCC_D3JUtgfjoK1O-24" style="edgeStyle=orthogonalEdgeStyle;rounded=0;orthogonalLoop=1;jettySize=auto;html=1;exitX=1;exitY=0.5;exitDx=0;exitDy=0;entryX=0;entryY=0.5;entryDx=0;entryDy=0;" parent="1" source="sCEOxCC_D3JUtgfjoK1O-4" target="sCEOxCC_D3JUtgfjoK1O-1" edge="1">
          <mxGeometry relative="1" as="geometry" />
        </mxCell>
        <mxCell id="sCEOxCC_D3JUtgfjoK1O-4" value="&amp;nbsp;Map&amp;nbsp;&lt;br&gt;（代理对象）" style="whiteSpace=wrap;html=1;rounded=0;" parent="1" vertex="1">
          <mxGeometry x="-60" y="380" width="120" height="60" as="geometry" />
        </mxCell>
        <mxCell id="sCEOxCC_D3JUtgfjoK1O-11" value="代理" style="text;html=1;align=center;verticalAlign=middle;resizable=0;points=[];autosize=1;strokeColor=none;fillColor=none;" parent="1" vertex="1">
          <mxGeometry x="170" y="365" width="50" height="30" as="geometry" />
        </mxCell>
        <mxCell id="sCEOxCC_D3JUtgfjoK1O-25" style="edgeStyle=orthogonalEdgeStyle;rounded=0;orthogonalLoop=1;jettySize=auto;html=1;exitX=0.5;exitY=0;exitDx=0;exitDy=0;entryX=0.5;entryY=1;entryDx=0;entryDy=0;" parent="1" source="sCEOxCC_D3JUtgfjoK1O-14" target="sCEOxCC_D3JUtgfjoK1O-4" edge="1">
          <mxGeometry relative="1" as="geometry" />
        </mxCell>
        <mxCell id="sCEOxCC_D3JUtgfjoK1O-26" style="edgeStyle=orthogonalEdgeStyle;rounded=0;orthogonalLoop=1;jettySize=auto;html=1;entryX=0.5;entryY=1;entryDx=0;entryDy=0;" parent="1" source="sCEOxCC_D3JUtgfjoK1O-14" target="sCEOxCC_D3JUtgfjoK1O-1" edge="1">
          <mxGeometry relative="1" as="geometry">
            <Array as="points">
              <mxPoint x="195" y="520" />
              <mxPoint x="400" y="520" />
            </Array>
          </mxGeometry>
        </mxCell>
        <mxCell id="sCEOxCC_D3JUtgfjoK1O-14" value="Map" style="rounded=0;whiteSpace=wrap;html=1;" parent="1" vertex="1">
          <mxGeometry x="135" y="600" width="120" height="60" as="geometry" />
        </mxCell>
        <mxCell id="sCEOxCC_D3JUtgfjoK1O-18" value="作为代理对象的调用处理器" style="text;html=1;align=center;verticalAlign=middle;resizable=0;points=[];autosize=1;strokeColor=none;fillColor=none;" parent="1" vertex="1">
          <mxGeometry x="-75" y="190" width="170" height="30" as="geometry" />
        </mxCell>
        <mxCell id="sCEOxCC_D3JUtgfjoK1O-23" value="上述调用处理器&lt;br&gt;实例化时，传入的对象。&lt;br&gt;这里同时又是被代理的对象。" style="text;html=1;align=center;verticalAlign=middle;resizable=0;points=[];autosize=1;strokeColor=none;fillColor=none;" parent="1" vertex="1">
          <mxGeometry x="230" y="240" width="180" height="60" as="geometry" />
        </mxCell>
        <mxCell id="sCEOxCC_D3JUtgfjoK1O-27" value="3. 都继承 Map&lt;br&gt;都有 entrySet() 方法" style="text;html=1;align=center;verticalAlign=middle;resizable=0;points=[];autosize=1;strokeColor=none;fillColor=none;" parent="1" vertex="1">
          <mxGeometry x="195" y="545" width="130" height="40" as="geometry" />
        </mxCell>
        <mxCell id="sCEOxCC_D3JUtgfjoK1O-28" value="代理对象 Map 是实例化&lt;br&gt;AnnotationInvocationHandler&lt;br&gt;时所传入的对象" style="text;html=1;align=center;verticalAlign=middle;resizable=0;points=[];autosize=1;strokeColor=none;fillColor=none;" parent="1" vertex="1">
          <mxGeometry x="-270" y="335" width="180" height="60" as="geometry" />
        </mxCell>
        <mxCell id="sCEOxCC_D3JUtgfjoK1O-30" value="5 AnnotationInvocationHandler.invoke() 被调用后&lt;br&gt;就会调用 LazyMap 的 get()" style="text;html=1;align=center;verticalAlign=middle;resizable=0;points=[];autosize=1;strokeColor=none;fillColor=none;" parent="1" vertex="1">
          <mxGeometry x="450" y="280" width="280" height="40" as="geometry" />
        </mxCell>
        <mxCell id="8pJzNf8jKelZhm4NtjMY-2" value="2. 调用了代理对象/所传入的对象&lt;br&gt;的&amp;nbsp;entrySet()&lt;br&gt;，是无参方法" style="text;html=1;align=center;verticalAlign=middle;resizable=0;points=[];autosize=1;strokeColor=none;fillColor=none;" parent="1" vertex="1">
          <mxGeometry x="-280" y="440" width="200" height="60" as="geometry" />
        </mxCell>
        <mxCell id="8pJzNf8jKelZhm4NtjMY-4" value="4. entrySet() 共同方法被调用&lt;br&gt;调用处理器调用 invoke()" style="text;html=1;align=center;verticalAlign=middle;resizable=0;points=[];autosize=1;strokeColor=none;fillColor=none;" parent="1" vertex="1">
          <mxGeometry x="-80" y="325" width="180" height="40" as="geometry" />
        </mxCell>
        <mxCell id="8pJzNf8jKelZhm4NtjMY-5" value="1. 实例化并序列化" style="text;html=1;align=center;verticalAlign=middle;resizable=0;points=[];autosize=1;strokeColor=none;fillColor=none;" parent="1" vertex="1">
          <mxGeometry x="-450" y="345" width="120" height="30" as="geometry" />
        </mxCell>
      </root>
    </mxGraphModel>
  </diagram>
</mxfile>
